<svg width="1363" height="163" viewBox="0 0 1363 163" fill="none" xmlns="http://www.w3.org/2000/svg">
<path d="M0 15C0 6.71573 6.71573 0 15 0H37V163H15C6.71573 163 0 156.284 0 148V15Z" fill="url(#paint0_linear_401_345)"/>
<rect width="1097" height="163" transform="translate(37)" fill="#F0F0F0"/>
<path d="M101.906 53.9219L94.3945 51.2383V48.0859L104.602 52.375V54.6367L101.906 53.9219ZM94.3945 56.1719L101.918 53.4297L104.602 52.7852V55.0352L94.3945 59.3242V56.1719ZM122.789 55.3398H126.293C126.223 56.4883 125.906 57.5078 125.344 58.3984C124.789 59.2891 124.012 59.9844 123.012 60.4844C122.02 60.9844 120.824 61.2344 119.426 61.2344C118.332 61.2344 117.352 61.0469 116.484 60.6719C115.617 60.2891 114.875 59.7422 114.258 59.0312C113.648 58.3203 113.184 57.4609 112.863 56.4531C112.543 55.4453 112.383 54.3164 112.383 53.0664V51.8828C112.383 50.6328 112.547 49.5039 112.875 48.4961C113.211 47.4805 113.688 46.6172 114.305 45.9062C114.93 45.1953 115.676 44.6484 116.543 44.2656C117.41 43.8828 118.379 43.6914 119.449 43.6914C120.871 43.6914 122.07 43.9492 123.047 44.4648C124.031 44.9805 124.793 45.6914 125.332 46.5977C125.879 47.5039 126.207 48.5352 126.316 49.6914H122.801C122.762 49.0039 122.625 48.4219 122.391 47.9453C122.156 47.4609 121.801 47.0977 121.324 46.8555C120.855 46.6055 120.23 46.4805 119.449 46.4805C118.863 46.4805 118.352 46.5898 117.914 46.8086C117.477 47.0273 117.109 47.3594 116.812 47.8047C116.516 48.25 116.293 48.8125 116.145 49.4922C116.004 50.1641 115.934 50.9531 115.934 51.8594V53.0664C115.934 53.9492 116 54.7266 116.133 55.3984C116.266 56.0625 116.469 56.625 116.742 57.0859C117.023 57.5391 117.383 57.8828 117.82 58.1172C118.266 58.3438 118.801 58.457 119.426 58.457C120.16 58.457 120.766 58.3398 121.242 58.1055C121.719 57.8711 122.082 57.5234 122.332 57.0625C122.59 56.6016 122.742 56.0273 122.789 55.3398ZM131.684 43V61H128.309V43H131.684ZM131.203 54.2148H130.277C130.285 53.332 130.402 52.5195 130.629 51.7773C130.855 51.0273 131.18 50.3789 131.602 49.832C132.023 49.2773 132.527 48.8477 133.113 48.543C133.707 48.2383 134.363 48.0859 135.082 48.0859C135.707 48.0859 136.273 48.1758 136.781 48.3555C137.297 48.5273 137.738 48.8086 138.105 49.1992C138.48 49.582 138.77 50.0859 138.973 50.7109C139.176 51.3359 139.277 52.0938 139.277 52.9844V61H135.879V52.9609C135.879 52.3984 135.797 51.957 135.633 51.6367C135.477 51.3086 135.246 51.0781 134.941 50.9453C134.645 50.8047 134.277 50.7344 133.84 50.7344C133.355 50.7344 132.941 50.8242 132.598 51.0039C132.262 51.1836 131.992 51.4336 131.789 51.7539C131.586 52.0664 131.438 52.4336 131.344 52.8555C131.25 53.2773 131.203 53.7305 131.203 54.2148ZM148.688 58.1406V52.4922C148.688 52.0859 148.621 51.7383 148.488 51.4492C148.355 51.1523 148.148 50.9219 147.867 50.7578C147.594 50.5938 147.238 50.5117 146.801 50.5117C146.426 50.5117 146.102 50.5781 145.828 50.7109C145.555 50.8359 145.344 51.0195 145.195 51.2617C145.047 51.4961 144.973 51.7734 144.973 52.0938H141.598C141.598 51.5547 141.723 51.043 141.973 50.5586C142.223 50.0742 142.586 49.6484 143.062 49.2812C143.539 48.9062 144.105 48.6133 144.762 48.4023C145.426 48.1914 146.168 48.0859 146.988 48.0859C147.973 48.0859 148.848 48.25 149.613 48.5781C150.379 48.9062 150.98 49.3984 151.418 50.0547C151.863 50.7109 152.086 51.5312 152.086 52.5156V57.9414C152.086 58.6367 152.129 59.207 152.215 59.6523C152.301 60.0898 152.426 60.4727 152.59 60.8008V61H149.18C149.016 60.6562 148.891 60.2266 148.805 59.7109C148.727 59.1875 148.688 58.6641 148.688 58.1406ZM149.133 53.2773L149.156 55.1875H147.27C146.824 55.1875 146.438 55.2383 146.109 55.3398C145.781 55.4414 145.512 55.5859 145.301 55.7734C145.09 55.9531 144.934 56.1641 144.832 56.4062C144.738 56.6484 144.691 56.9141 144.691 57.2031C144.691 57.4922 144.758 57.7539 144.891 57.9883C145.023 58.2148 145.215 58.3945 145.465 58.5273C145.715 58.6523 146.008 58.7148 146.344 58.7148C146.852 58.7148 147.293 58.6133 147.668 58.4102C148.043 58.207 148.332 57.957 148.535 57.6602C148.746 57.3633 148.855 57.082 148.863 56.8164L149.754 58.2461C149.629 58.5664 149.457 58.8984 149.238 59.2422C149.027 59.5859 148.758 59.9102 148.43 60.2148C148.102 60.5117 147.707 60.7578 147.246 60.9531C146.785 61.1406 146.238 61.2344 145.605 61.2344C144.801 61.2344 144.07 61.0742 143.414 60.7539C142.766 60.4258 142.25 59.9766 141.867 59.4062C141.492 58.8281 141.305 58.1719 141.305 57.4375C141.305 56.7734 141.43 56.1836 141.68 55.668C141.93 55.1523 142.297 54.7188 142.781 54.3672C143.273 54.0078 143.887 53.7383 144.621 53.5586C145.355 53.3711 146.207 53.2773 147.176 53.2773H149.133ZM160.898 48.3203V50.7109H153.516V48.3203H160.898ZM155.344 45.1914H158.719V57.1797C158.719 57.5469 158.766 57.8281 158.859 58.0234C158.961 58.2188 159.109 58.3555 159.305 58.4336C159.5 58.5039 159.746 58.5391 160.043 58.5391C160.254 58.5391 160.441 58.5312 160.605 58.5156C160.777 58.4922 160.922 58.4688 161.039 58.4453L161.051 60.9297C160.762 61.0234 160.449 61.0977 160.113 61.1523C159.777 61.207 159.406 61.2344 159 61.2344C158.258 61.2344 157.609 61.1133 157.055 60.8711C156.508 60.6211 156.086 60.2227 155.789 59.6758C155.492 59.1289 155.344 58.4102 155.344 57.5195V45.1914ZM164.637 43.9375H167.613L171.996 56.4648L176.379 43.9375H179.355L173.191 61H170.801L164.637 43.9375ZM163.031 43.9375H165.996L166.535 56.1484V61H163.031V43.9375ZM177.996 43.9375H180.973V61H177.457V56.1484L177.996 43.9375ZM195.504 58.2578V61H186.422V58.2578H195.504ZM187.57 43.9375V61H184.055V43.9375H187.57ZM194.32 50.8867V53.5586H186.422V50.8867H194.32ZM195.492 43.9375V46.6914H186.422V43.9375H195.492ZM202.793 61H199.078L199.102 58.2578H202.793C203.715 58.2578 204.492 58.0508 205.125 57.6367C205.758 57.2148 206.234 56.6016 206.555 55.7969C206.883 54.9922 207.047 54.0195 207.047 52.8789V52.0469C207.047 51.1719 206.953 50.4023 206.766 49.7383C206.586 49.0742 206.316 48.5156 205.957 48.0625C205.598 47.6094 205.156 47.2695 204.633 47.043C204.109 46.8086 203.508 46.6914 202.828 46.6914H199.008V43.9375H202.828C203.969 43.9375 205.012 44.1328 205.957 44.5234C206.91 44.9062 207.734 45.457 208.43 46.1758C209.125 46.8945 209.66 47.7539 210.035 48.7539C210.418 49.7461 210.609 50.8516 210.609 52.0703V52.8789C210.609 54.0898 210.418 55.1953 210.035 56.1953C209.66 57.1953 209.125 58.0547 208.43 58.7734C207.742 59.4844 206.918 60.0352 205.957 60.4258C205.004 60.8086 203.949 61 202.793 61ZM201.07 43.9375V61H197.555V43.9375H201.07Z" fill="#888888"/>
<path d="M118.594 98.4219V104.75H101.086V98.4219H118.594ZM103.828 84.875V119H95.6016V84.875H103.828ZM124.125 84.875V119H115.922V84.875H124.125ZM127.992 106.578V106.086C127.992 104.227 128.258 102.516 128.789 100.953C129.32 99.375 130.102 98.0078 131.133 96.8516C132.164 95.6953 133.438 94.7969 134.953 94.1562C136.469 93.5 138.219 93.1719 140.203 93.1719C142.203 93.1719 143.961 93.5 145.477 94.1562C147.008 94.7969 148.289 95.6953 149.32 96.8516C150.352 98.0078 151.133 99.375 151.664 100.953C152.195 102.516 152.461 104.227 152.461 106.086V106.578C152.461 108.422 152.195 110.133 151.664 111.711C151.133 113.273 150.352 114.641 149.32 115.812C148.289 116.969 147.016 117.867 145.5 118.508C143.984 119.148 142.234 119.469 140.25 119.469C138.266 119.469 136.508 119.148 134.977 118.508C133.445 117.867 132.164 116.969 131.133 115.812C130.102 114.641 129.32 113.273 128.789 111.711C128.258 110.133 127.992 108.422 127.992 106.578ZM135.891 106.086V106.578C135.891 107.531 135.961 108.422 136.102 109.25C136.242 110.078 136.477 110.805 136.805 111.43C137.133 112.039 137.578 112.516 138.141 112.859C138.703 113.203 139.406 113.375 140.25 113.375C141.078 113.375 141.766 113.203 142.312 112.859C142.875 112.516 143.32 112.039 143.648 111.43C143.977 110.805 144.211 110.078 144.352 109.25C144.492 108.422 144.562 107.531 144.562 106.578V106.086C144.562 105.164 144.492 104.297 144.352 103.484C144.211 102.656 143.977 101.93 143.648 101.305C143.32 100.664 142.875 100.164 142.312 99.8047C141.75 99.4453 141.047 99.2656 140.203 99.2656C139.375 99.2656 138.68 99.4453 138.117 99.8047C137.57 100.164 137.133 100.664 136.805 101.305C136.477 101.93 136.242 102.656 136.102 103.484C135.961 104.297 135.891 105.164 135.891 106.086ZM163.688 111.453L168.375 93.6406H173.32L171.562 102.57L166.922 119H162.961L163.688 111.453ZM161.836 93.6406L164.742 111.312L165.07 119H160.266L154.266 93.6406H161.836ZM177.492 110.938L180.422 93.6406H187.992L182.039 119H177.234L177.492 110.938ZM173.883 93.6406L178.617 111.406L179.344 119H175.336L170.789 102.617L169.102 93.6406H173.883ZM218.297 84.875V119H210.07V84.875H218.297ZM228.562 84.875V91.2266H200.039V84.875H228.562ZM225.773 106.578V106.086C225.773 104.227 226.039 102.516 226.57 100.953C227.102 99.375 227.883 98.0078 228.914 96.8516C229.945 95.6953 231.219 94.7969 232.734 94.1562C234.25 93.5 236 93.1719 237.984 93.1719C239.984 93.1719 241.742 93.5 243.258 94.1562C244.789 94.7969 246.07 95.6953 247.102 96.8516C248.133 98.0078 248.914 99.375 249.445 100.953C249.977 102.516 250.242 104.227 250.242 106.086V106.578C250.242 108.422 249.977 110.133 249.445 111.711C248.914 113.273 248.133 114.641 247.102 115.812C246.07 116.969 244.797 117.867 243.281 118.508C241.766 119.148 240.016 119.469 238.031 119.469C236.047 119.469 234.289 119.148 232.758 118.508C231.227 117.867 229.945 116.969 228.914 115.812C227.883 114.641 227.102 113.273 226.57 111.711C226.039 110.133 225.773 108.422 225.773 106.578ZM233.672 106.086V106.578C233.672 107.531 233.742 108.422 233.883 109.25C234.023 110.078 234.258 110.805 234.586 111.43C234.914 112.039 235.359 112.516 235.922 112.859C236.484 113.203 237.188 113.375 238.031 113.375C238.859 113.375 239.547 113.203 240.094 112.859C240.656 112.516 241.102 112.039 241.43 111.43C241.758 110.805 241.992 110.078 242.133 109.25C242.273 108.422 242.344 107.531 242.344 106.578V106.086C242.344 105.164 242.273 104.297 242.133 103.484C241.992 102.656 241.758 101.93 241.43 101.305C241.102 100.664 240.656 100.164 240.094 99.8047C239.531 99.4453 238.828 99.2656 237.984 99.2656C237.156 99.2656 236.461 99.4453 235.898 99.8047C235.352 100.164 234.914 100.664 234.586 101.305C234.258 101.93 234.023 102.656 233.883 103.484C233.742 104.297 233.672 105.164 233.672 106.086ZM266.086 84.875H279.516C282.141 84.875 284.422 85.2656 286.359 86.0469C288.297 86.8281 289.789 87.9844 290.836 89.5156C291.898 91.0469 292.43 92.9375 292.43 95.1875C292.43 97.1406 292.125 98.7734 291.516 100.086C290.906 101.398 290.055 102.484 288.961 103.344C287.883 104.188 286.625 104.883 285.188 105.43L282.492 106.953H271.219L271.172 100.602H279.516C280.562 100.602 281.43 100.414 282.117 100.039C282.805 99.6641 283.32 99.1328 283.664 98.4453C284.023 97.7422 284.203 96.9062 284.203 95.9375C284.203 94.9531 284.023 94.1094 283.664 93.4062C283.305 92.7031 282.773 92.1641 282.07 91.7891C281.383 91.4141 280.531 91.2266 279.516 91.2266H274.312V119H266.086V84.875ZM284.766 119L277.219 103.906L285.938 103.859L293.578 118.648V119H284.766ZM311.836 112.836V93.6406H319.758V119H312.352L311.836 112.836ZM312.586 107.68L314.648 107.633C314.648 109.336 314.445 110.914 314.039 112.367C313.633 113.805 313.031 115.055 312.234 116.117C311.453 117.18 310.484 118.008 309.328 118.602C308.188 119.18 306.867 119.469 305.367 119.469C304.117 119.469 302.969 119.297 301.922 118.953C300.891 118.594 300 118.039 299.25 117.289C298.5 116.523 297.914 115.547 297.492 114.359C297.086 113.156 296.883 111.719 296.883 110.047V93.6406H304.781V110.094C304.781 110.656 304.852 111.141 304.992 111.547C305.133 111.953 305.336 112.297 305.602 112.578C305.867 112.844 306.195 113.047 306.586 113.188C306.992 113.312 307.453 113.375 307.969 113.375C309.156 113.375 310.086 113.125 310.758 112.625C311.43 112.125 311.898 111.445 312.164 110.586C312.445 109.727 312.586 108.758 312.586 107.68ZM331.875 99.0547V119H323.977V93.6406H331.383L331.875 99.0547ZM330.938 105.453L329.086 105.5C329.086 103.562 329.32 101.836 329.789 100.32C330.258 98.7891 330.922 97.4922 331.781 96.4297C332.641 95.3672 333.664 94.5625 334.852 94.0156C336.055 93.4531 337.391 93.1719 338.859 93.1719C340.031 93.1719 341.102 93.3438 342.07 93.6875C343.055 94.0312 343.898 94.5859 344.602 95.3516C345.32 96.1172 345.867 97.1328 346.242 98.3984C346.633 99.6484 346.828 101.195 346.828 103.039V119H338.883V103.016C338.883 102 338.742 101.227 338.461 100.695C338.18 100.148 337.773 99.7734 337.242 99.5703C336.711 99.3672 336.062 99.2656 335.297 99.2656C334.484 99.2656 333.797 99.4219 333.234 99.7344C332.672 100.047 332.219 100.484 331.875 101.047C331.547 101.594 331.305 102.242 331.148 102.992C331.008 103.742 330.938 104.562 330.938 105.453ZM363.773 108.195H357.047C357.047 106.82 357.141 105.609 357.328 104.562C357.531 103.5 357.875 102.547 358.359 101.703C358.844 100.859 359.5 100.078 360.328 99.3594C361.062 98.75 361.695 98.1641 362.227 97.6016C362.758 97.0391 363.164 96.4688 363.445 95.8906C363.727 95.3125 363.867 94.6953 363.867 94.0391C363.867 93.2266 363.75 92.5625 363.516 92.0469C363.297 91.5312 362.961 91.1484 362.508 90.8984C362.07 90.6328 361.516 90.5 360.844 90.5C360.297 90.5 359.781 90.6328 359.297 90.8984C358.828 91.1641 358.445 91.5781 358.148 92.1406C357.852 92.6875 357.688 93.4141 357.656 94.3203H349.711C349.758 91.9922 350.273 90.1016 351.258 88.6484C352.258 87.1797 353.586 86.1094 355.242 85.4375C356.914 84.75 358.781 84.4062 360.844 84.4062C363.125 84.4062 365.086 84.7578 366.727 85.4609C368.367 86.1641 369.625 87.2109 370.5 88.6016C371.375 89.9766 371.812 91.6719 371.812 93.6875C371.812 95.0312 371.555 96.2031 371.039 97.2031C370.539 98.1875 369.859 99.1094 369 99.9688C368.156 100.812 367.211 101.719 366.164 102.688C365.258 103.484 364.641 104.297 364.312 105.125C363.984 105.938 363.805 106.961 363.773 108.195ZM356.086 115.32C356.086 114.195 356.492 113.258 357.305 112.508C358.117 111.742 359.172 111.359 360.469 111.359C361.766 111.359 362.82 111.742 363.633 112.508C364.445 113.258 364.852 114.195 364.852 115.32C364.852 116.445 364.445 117.391 363.633 118.156C362.82 118.906 361.766 119.281 360.469 119.281C359.172 119.281 358.117 118.906 357.305 118.156C356.492 117.391 356.086 116.445 356.086 115.32Z" fill="black"/>
<path d="M1134 0H1348C1356.28 0 1363 6.71573 1363 15V148C1363 156.284 1356.28 163 1348 163H1134V0Z" fill="url(#paint1_linear_401_345)"/>
<path d="M1260.62 78.8078C1263.81 78.8078 1266.93 79.7552 1269.59 81.5302C1272.25 83.3052 1274.32 85.8281 1275.54 88.7798C1276.76 91.7315 1277.08 94.9795 1276.46 98.1131C1275.84 101.247 1274.3 104.125 1272.04 106.384C1269.78 108.643 1266.9 110.182 1263.77 110.805C1260.63 111.428 1257.39 111.108 1254.43 109.886C1251.48 108.663 1248.96 106.593 1247.18 103.936C1245.41 101.28 1244.46 98.1565 1244.46 94.9616C1244.46 90.6774 1246.16 86.5686 1249.19 83.5392C1252.22 80.5097 1256.33 78.8078 1260.62 78.8078V78.8078ZM1260.62 73.4232C1256.36 73.4232 1252.19 74.6864 1248.65 77.0531C1245.11 79.4198 1242.35 82.7836 1240.72 86.7192C1239.09 90.6549 1238.66 94.9855 1239.49 99.1636C1240.32 103.342 1242.37 107.179 1245.39 110.192C1248.4 113.204 1252.24 115.255 1256.41 116.086C1260.59 116.917 1264.92 116.491 1268.86 114.861C1272.79 113.23 1276.16 110.47 1278.52 106.928C1280.89 103.386 1282.15 99.2215 1282.15 94.9616C1282.15 89.2493 1279.88 83.7709 1275.85 79.7317C1271.81 75.6924 1266.33 73.4232 1260.62 73.4232Z" fill="white"/>
<path d="M1274.08 46.4999H1220.23C1218.8 46.4999 1217.43 47.0672 1216.42 48.0771C1215.41 49.0869 1214.85 50.4565 1214.85 51.8845V105.731C1214.85 107.159 1215.41 108.528 1216.42 109.538C1217.43 110.548 1218.8 111.115 1220.23 111.115H1231V105.731H1220.23V68.0383H1279.46V51.8845C1279.46 50.4565 1278.89 49.0869 1277.88 48.0771C1276.87 47.0672 1275.5 46.4999 1274.08 46.4999V46.4999ZM1220.23 62.6537V51.8845H1274.08V62.6537H1220.23Z" fill="white"/>
<path d="M1255.23 86.8848V103.039L1268.69 94.9617L1255.23 86.8848Z" fill="white"/>
<defs>
<linearGradient id="paint0_linear_401_345" x1="33.344" y1="5.63892" x2="-62.2978" y2="60.4337" gradientUnits="userSpaceOnUse">
<stop stop-color="#244674"/>
<stop offset="1" stop-color="#01B8E2"/>
</linearGradient>
<linearGradient id="paint1_linear_401_345" x1="1340.37" y1="5.63892" x2="1282.45" y2="211.036" gradientUnits="userSpaceOnUse">
<stop stop-color="#244674"/>
<stop offset="1" stop-color="#01B8E2"/>
</linearGradient>
</defs>
</svg>
